<svg width="149.000000" height="221.000000" viewBox="0 0 149 221" fill="none" xmlns="http://www.w3.org/2000/svg" xmlns:xlink="http://www.w3.org/1999/xlink">
	<desc>
			Created with Pixso.
	</desc>
	<defs>
		<clipPath id="clip1_49">
			<rect id="Icon" width="149.000000" height="221.000000" fill="white" fill-opacity="0"/>
		</clipPath>
	</defs>
	<rect id="Icon" width="149.000000" height="221.000000" fill="#FFFFFF" fill-opacity="0"/>
	<g clip-path="url(#clip1_49)">
		<path id="Vector" d="M123.117 59.962C138.376 53.788 148 44.755 148 34.692C148 16.085 115.093 1 74.5 1C33.907 1 1 16.085 1 34.692C1 44.755 10.624 53.788 25.883 59.962C10.624 66.135 1 75.168 1 85.23C1 95.293 10.624 104.325 25.883 110.499C10.624 116.674 1 125.706 1 135.769C1 145.832 10.624 154.865 25.883 161.038C10.624 167.212 1 176.245 1 186.308C1 204.915 33.907 220 74.5 220C115.093 220 148 204.915 148 186.308C148 176.245 138.376 167.212 123.117 161.038C138.376 154.865 148 145.832 148 135.769C148 125.706 138.376 116.674 123.117 110.5C138.376 104.326 148 95.2939 148 85.23C148 75.168 138.376 66.135 123.117 59.9609L123.117 59.962Z" fill="#5551FF" fill-opacity="1.000000" fill-rule="nonzero"/>
		<path id="Vector" d="M148 34.692C148 16.085 115.093 1 74.5 1C33.907 1 1 16.085 1 34.692C1 44.755 10.624 53.788 25.883 59.962C10.624 66.135 1 75.168 1 85.23C1 95.293 10.624 104.325 25.883 110.499C10.624 116.674 1 125.706 1 135.769C1 145.832 10.624 154.865 25.883 161.038C10.624 167.212 1 176.245 1 186.308C1 204.915 33.907 220 74.5 220C115.093 220 148 204.915 148 186.308C148 176.245 138.376 167.212 123.117 161.038C138.376 154.865 148 145.832 148 135.769C148 125.706 138.376 116.674 123.117 110.5C138.376 104.326 148 95.2939 148 85.23C148 75.168 138.376 66.135 123.117 59.9609L123.117 59.962C138.376 53.788 148 44.755 148 34.692Z" stroke="#000000" stroke-opacity="1.000000" stroke-width="1.000000"/>
	</g>
</svg>
