<svg width="200.000000" height="200.000000" viewBox="0 0 200 200" fill="none" xmlns="http://www.w3.org/2000/svg" xmlns:xlink="http://www.w3.org/1999/xlink">
	<desc>
			Created with Pixso.
	</desc>
	<defs>
		<clipPath id="clip1_58">
			<rect id="Icon" width="200.000000" height="200.000000" fill="white" fill-opacity="0"/>
		</clipPath>
	</defs>
	<rect id="Icon" width="200.000000" height="200.000000" fill="#FFFFFF" fill-opacity="0"/>
	<g clip-path="url(#clip1_58)">
		<path id="Vector" d="M119.5 70C119.5 97.338 97.338 119.5 70 119.5C42.662 119.5 20.5 97.338 20.5 70C20.5 42.662 42.662 20.5 70 20.5C97.338 20.5 119.5 42.662 119.5 70ZM69.5 104.5C88.278 104.5 103.5 89.278 103.5 70.5C103.5 51.722 88.278 36.5 69.5 36.5C50.722 36.5 35.5 51.722 35.5 70.5C35.5 89.278 50.722 104.5 69.5 104.5Z" fill="#CD97E9" fill-opacity="1.000000" fill-rule="nonzero"/>
		<path id="Vector" d="M70 119.5C42.662 119.5 20.5 97.338 20.5 70C20.5 42.662 42.662 20.5 70 20.5C97.338 20.5 119.5 42.662 119.5 70C119.5 97.338 97.338 119.5 70 119.5ZM103.5 70.5C103.5 51.722 88.278 36.5 69.5 36.5C50.722 36.5 35.5 51.722 35.5 70.5C35.5 89.278 50.722 104.5 69.5 104.5C88.278 104.5 103.5 89.278 103.5 70.5Z" stroke="#000000" stroke-opacity="1.000000" stroke-width="1.000000"/>
	</g>
</svg>
