<svg width="60.930176" height="60.929993" viewBox="0 0 60.9302 60.93" fill="none" xmlns="http://www.w3.org/2000/svg" xmlns:xlink="http://www.w3.org/1999/xlink">
	<desc>
			Created with Pixso.
	</desc>
	<defs>
		<clipPath id="clip1_381">
			<rect id="Image [logo]" width="60.930000" height="60.930000" fill="white" fill-opacity="0"/>
		</clipPath>
	</defs>
	<rect id="Image [logo]" width="60.930000" height="60.930000" fill="#FFFFFF" fill-opacity="0"/>
	<g clip-path="url(#clip1_381)">
		<path id="Vector" d="M60.9302 47.277L47.3076 60.93L37.4673 51.0675C35.3774 51.7583 33.1445 52.1322 30.8237 52.1322C20.5933 52.1322 12.0557 44.8662 10.0688 35.2022L0 0L36.1548 10.3317C45.2778 12.7009 52.0151 21.0085 52.0151 30.8931C52.0151 33.1425 51.6665 35.3101 51.02 37.3447L60.9302 47.277ZM34.8735 15.0517L11.9253 8.49396L28.8433 25.4499C29.4609 25.2241 30.1279 25.1008 30.8237 25.1008C34.0156 25.1008 36.6035 27.6942 36.6035 30.8933C36.6035 34.0924 34.0156 36.6858 30.8237 36.6858C27.6318 36.6858 25.0444 34.0924 25.0444 30.8933C25.0444 30.1962 25.167 29.5277 25.3926 28.9086L8.50391 11.9822L14.811 34.033L14.8486 34.215C16.3779 41.6516 22.9551 47.2409 30.8237 47.2409C32.6187 47.2409 34.3359 46.9523 35.9385 46.4225L38.793 45.4789L47.3076 54.0128L54.0283 47.277L45.4683 38.6978L46.3696 35.8605C46.8657 34.3002 47.1353 32.6329 47.1353 30.8931C47.1353 23.2916 41.9541 16.8904 34.9307 15.0666L34.8735 15.0517Z" fill="#D7FE63" fill-opacity="1.000000" fill-rule="evenodd"/>
		<path id="Vector" d="M28.8433 25.45L11.9253 8.49402L34.873 15.0518L34.9307 15.0666C41.9541 16.8905 47.1348 23.2917 47.1348 30.8932C47.1348 32.6329 46.8657 34.3002 46.3696 35.8605L45.4683 38.6978L54.0283 47.277L47.3076 54.0129L38.793 45.4789L35.9385 46.4226C34.3359 46.9523 32.6182 47.241 30.8237 47.241C22.9551 47.241 16.3774 41.6516 14.8486 34.215L14.811 34.033L8.50391 11.9822L25.3921 28.9086C25.167 29.5278 25.0439 30.1962 25.0439 30.8934C25.0439 34.0925 27.6318 36.6858 30.8237 36.6858C34.0156 36.6858 36.603 34.0925 36.603 30.8934C36.603 27.6942 34.0156 25.1008 30.8237 25.1008C30.1279 25.1008 29.4609 25.2241 28.8433 25.45Z" fill="#D7FE63" fill-opacity="1.000000" fill-rule="nonzero"/>
		<path id="Vector" d="M60.9302 47.277L47.3076 60.93L37.4673 51.0675C35.3774 51.7583 33.1445 52.1322 30.8237 52.1322C20.5933 52.1322 12.0557 44.8662 10.0688 35.2022L0 0L36.1548 10.3317C45.2778 12.7009 52.0151 21.0085 52.0151 30.8931C52.0151 33.1425 51.6665 35.3101 51.02 37.3447L60.9302 47.277ZM34.8735 15.0517L11.9253 8.49396L28.8433 25.4499C29.4609 25.2241 30.1279 25.1008 30.8237 25.1008C34.0156 25.1008 36.6035 27.6942 36.6035 30.8933C36.6035 34.0924 34.0156 36.6858 30.8237 36.6858C27.6318 36.6858 25.0444 34.0924 25.0444 30.8933C25.0444 30.1962 25.167 29.5277 25.3926 28.9086L8.50391 11.9822L14.811 34.033L14.8486 34.215C16.3779 41.6516 22.9551 47.2409 30.8237 47.2409C32.6187 47.2409 34.3359 46.9523 35.9385 46.4225L38.793 45.4789L47.3076 54.0128L54.0283 47.277L45.4683 38.6978L46.3696 35.8605C46.8657 34.3002 47.1353 32.6329 47.1353 30.8931C47.1353 23.2916 41.9541 16.8904 34.9307 15.0666L34.8735 15.0517Z" fill="#000000" fill-opacity="1.000000" fill-rule="evenodd"/>
	</g>
</svg>
