<svg width="250.000000" height="250.000000" viewBox="0 0 250 250" fill="none" xmlns="http://www.w3.org/2000/svg" xmlns:xlink="http://www.w3.org/1999/xlink">
	<desc>
			Created with Pixso.
	</desc>
	<defs>
		<clipPath id="clip1_67">
			<rect id="Icon" width="250.000000" height="250.000000" fill="white" fill-opacity="0"/>
		</clipPath>
	</defs>
	<rect id="Icon" width="250.000000" height="250.000000" fill="#FFFFFF" fill-opacity="0"/>
	<g clip-path="url(#clip1_67)">
		<path id="Vector" d="M92.5 19.2857L108.531 65.7143L155.357 46.0714L131.204 88.44L177.143 103.214L131.204 117.989L156.897 162.561L108.531 138.883L92.5 187.143L76.4686 140.714L19.6428 167.857L53.7958 117.989L1.42859 103.214L53.7958 88.44L28.1029 43.8679L76.4686 67.5464L92.5 19.2857Z" fill="#F4C8C6" fill-opacity="1.000000" fill-rule="evenodd"/>
		<path id="Vector" d="M108.531 65.7143L155.357 46.0714L131.204 88.44L177.143 103.214L131.204 117.989L156.897 162.561L108.531 138.883L92.5 187.143L76.4686 140.714L19.6428 167.857L53.7958 117.989L1.42859 103.214L53.7958 88.44L28.1029 43.8679L76.4686 67.5464L92.5 19.2857L108.531 65.7143Z" stroke="#000000" stroke-opacity="1.000000" stroke-width="1.428571"/>
	</g>
</svg>
