<svg width="256.342529" height="256.342529" viewBox="0 0 256.343 256.343" fill="none" xmlns="http://www.w3.org/2000/svg" xmlns:xlink="http://www.w3.org/1999/xlink">
	<desc>
			Created with Pixso.
	</desc>
	<defs>
		<clipPath id="clip1_52">
			<rect id="Icon" width="200.000000" height="200.000000" transform="translate(68.403931 0.000000) rotate(19.999983)" fill="white" fill-opacity="0"/>
		</clipPath>
	</defs>
	<rect id="Icon" width="200.000000" height="200.000000" transform="translate(68.403931 0.000000) rotate(19.999983)" fill="#FFFFFF" fill-opacity="0"/>
	<g clip-path="url(#clip1_52)">
		<path id="Vector" d="M88.8999 29.4529C84.4019 27.8159 79.4288 30.1348 77.7916 34.6328L50.8861 108.555C49.249 113.053 51.568 118.026 56.0659 119.663L129.988 146.569C134.486 148.206 139.459 145.887 141.097 141.389L168.002 67.4668C169.639 62.9688 167.32 57.9956 162.822 56.3584L88.8999 29.4529ZM137.642 74.8621L96.2954 59.8132L81.2465 101.16L122.593 116.209L137.642 74.8621Z" fill="#A1D99E" fill-opacity="1.000000" fill-rule="evenodd"/>
		<path id="Vector" d="M77.7917 34.6328L50.8861 108.555C49.249 113.053 51.568 118.026 56.0659 119.663L129.988 146.569C134.486 148.206 139.459 145.887 141.097 141.389L168.002 67.4668C169.639 62.9688 167.32 57.9956 162.822 56.3584L88.8999 29.4529C84.4019 27.8159 79.4288 30.1348 77.7917 34.6328ZM96.2954 59.8132L81.2465 101.16L122.593 116.209L137.642 74.8621L96.2954 59.8132Z" stroke="#000000" stroke-opacity="1.000000" stroke-width="1.000000"/>
	</g>
</svg>
