<svg width="150.000000" height="150.000000" viewBox="0 0 150 150" fill="none" xmlns="http://www.w3.org/2000/svg" xmlns:xlink="http://www.w3.org/1999/xlink">
	<desc>
			Created with Pixso.
	</desc>
	<defs>
		<clipPath id="clip1_64">
			<rect id="Icon" width="150.000000" height="150.000000" fill="white" fill-opacity="0"/>
		</clipPath>
	</defs>
	<rect id="Icon" width="150.000000" height="150.000000" fill="#FFFFFF" fill-opacity="0"/>
	<g clip-path="url(#clip1_64)">
		<path id="Vector" d="M69.1895 100.094C75.6252 102.278 82.8699 102.143 89.5765 99.1693C103.747 92.8865 110.15 76.3123 103.878 62.1493C100.909 55.446 95.6335 50.484 89.3973 47.7831C91.5869 41.3464 91.458 34.1031 88.4893 27.4003C82.2175 13.2368 65.646 6.84851 51.4757 13.131C44.7689 16.1044 39.8022 21.3832 37.0958 27.6206C30.6599 25.4365 23.4158 25.572 16.7086 28.545C2.53882 34.8279 -3.86401 51.402 2.40771 65.5649C5.37634 72.2683 10.6517 77.2299 16.8878 79.9307C14.6979 86.3674 14.8273 93.6111 17.796 100.314C24.0676 114.477 40.6393 120.866 54.8096 114.583C61.5162 111.61 66.4829 106.331 69.1895 100.094Z" fill="#C7B9FF" fill-opacity="1.000000" fill-rule="nonzero"/>
		<path id="Vector" d="M89.5765 99.1693C103.747 92.8865 110.15 76.3123 103.878 62.1493C100.909 55.446 95.6335 50.484 89.3973 47.7831C91.5869 41.3464 91.458 34.1031 88.4893 27.4003C82.2175 13.2368 65.646 6.84851 51.4757 13.131C44.7689 16.1044 39.8022 21.3832 37.0958 27.6206C30.6599 25.4365 23.4158 25.572 16.7086 28.545C2.53882 34.8279 -3.86401 51.402 2.40771 65.5649C5.37634 72.2683 10.6517 77.2299 16.8878 79.9307C14.6979 86.3674 14.8273 93.6111 17.796 100.314C24.0676 114.477 40.6393 120.866 54.8096 114.583C61.5162 111.61 66.4829 106.331 69.1895 100.094C75.6252 102.278 82.8699 102.143 89.5765 99.1693Z" stroke="#000000" stroke-opacity="1.000000" stroke-width="0.857143"/>
	</g>
</svg>
