<svg width="273.205078" height="273.205078" viewBox="0 0 273.205 273.205" fill="none" xmlns="http://www.w3.org/2000/svg" xmlns:xlink="http://www.w3.org/1999/xlink">
	<desc>
			Created with Pixso.
	</desc>
	<defs>
		<clipPath id="clip1_70">
			<rect id="Icon" width="200.000000" height="200.000000" transform="translate(100.000000 0.000000) rotate(30.000010)" fill="white" fill-opacity="0"/>
		</clipPath>
	</defs>
	<rect id="Icon" width="200.000000" height="200.000000" transform="translate(100.000000 0.000000) rotate(30.000010)" fill="#FFFFFF" fill-opacity="0"/>
	<g clip-path="url(#clip1_70)">
		<path id="Vector" d="M126.327 15.2C121.353 12.328 114.993 14.0322 112.121 19.0067L64.9205 100.76C62.0486 105.734 63.7528 112.094 68.7272 114.966L150.48 162.166C155.454 165.038 161.815 163.334 164.687 158.359L211.887 76.6067C214.759 71.6322 213.054 65.272 208.08 62.4L126.327 15.2ZM174.467 79.02L128.741 52.62L102.341 98.3462L148.067 124.746L174.467 79.02Z" fill="#F24E1E" fill-opacity="1.000000" fill-rule="evenodd"/>
		<path id="Vector" d="M112.121 19.0067L64.9205 100.76C62.0486 105.734 63.7528 112.094 68.7272 114.966L150.48 162.166C155.454 165.038 161.815 163.334 164.687 158.359L211.887 76.6067C214.759 71.6322 213.054 65.272 208.08 62.4L126.327 15.2C121.353 12.328 114.993 14.0322 112.121 19.0067ZM128.741 52.62L102.341 98.3462L148.067 124.746L174.467 79.02L128.741 52.62Z" stroke="#000000" stroke-opacity="1.000000" stroke-width="1.600000"/>
	</g>
</svg>
