<svg width="200.000000" height="200.000000" viewBox="0 0 200 200" fill="none" xmlns="http://www.w3.org/2000/svg" xmlns:xlink="http://www.w3.org/1999/xlink">
	<desc>
			Created with Pixso.
	</desc>
	<defs>
		<clipPath id="clip1_55">
			<rect id="Icon" width="200.000000" height="200.000000" fill="white" fill-opacity="0"/>
		</clipPath>
	</defs>
	<rect id="Icon" width="200.000000" height="200.000000" fill="#FFFFFF" fill-opacity="0"/>
	<g clip-path="url(#clip1_55)">
		<path id="Vector" d="M82.8886 20.6666L70.4446 20.6666L70.4446 61.7446L40.5946 31.8959L31.894 40.5973L61.7419 70.4453L20.6666 70.4453L20.6666 82.8893L61.7319 82.8893L31.8713 112.75L40.5773 121.457L70.444 91.5893L70.444 132.667L82.8886 132.667L82.8886 91.592L112.756 121.459L121.457 112.758L91.5893 82.89L132.667 82.89L132.667 70.4453L91.5886 70.4453L121.436 40.598L112.73 31.8913L82.8886 61.7333L82.8886 20.6666Z" fill="#F2CB58" fill-opacity="1.000000" fill-rule="nonzero"/>
		<path id="Vector" d="M70.4446 20.6666L70.4446 61.7446L40.5946 31.8959L31.894 40.5973L61.7419 70.4453L20.6666 70.4453L20.6666 82.8893L61.7319 82.8893L31.8713 112.75L40.5773 121.457L70.444 91.5893L70.444 132.667L82.8886 132.667L82.8886 91.592L112.756 121.459L121.457 112.758L91.5893 82.89L132.667 82.89L132.667 70.4453L91.5886 70.4453L121.436 40.598L112.73 31.8913L82.8886 61.7333L82.8886 20.6666L70.4446 20.6666Z" stroke="#000000" stroke-opacity="1.000000" stroke-width="1.333333"/>
	</g>
</svg>
